<?xml version="1.0" encoding="UTF-8"?><svg xmlns="http://www.w3.org/2000/svg" xmlns:xlink="http://www.w3.org/1999/xlink" viewBox="0 0 13 13"><defs><style>.e{stroke:#388dfe;stroke-width:1.5px;}.e,.f{fill:none;}.g{fill:#388dfe;}.h{clip-path:url(#d);}</style><clipPath id="d"><rect class="f" x="3" y="4" width="7" height="5"/></clipPath></defs><g id="a"/><g id="b"><g id="c"><g class="h"><path class="g" d="M8.93,4.45c-.45-.19-.93-.33-1.43-.41,0,0-.02,0-.02,0-.06,.1-.13,.23-.18,.34-.54-.07-1.07-.07-1.6,0-.05-.11-.12-.24-.18-.34,0,0-.01-.01-.02,0-.5,.08-.98,.22-1.42,.41h0c-.91,1.26-1.16,2.48-1.03,3.68,0,0,0,.01,0,.02,.6,.41,1.18,.65,1.75,.81,0,0,.02,0,.02,0,.13-.17,.25-.35,.36-.54,0-.01,0-.02-.01-.03-.19-.07-.37-.15-.55-.24-.01,0-.01-.03,0-.03,.04-.03,.07-.05,.11-.08,0,0,.01,0,.02,0,1.15,.48,2.39,.48,3.52,0,0,0,.02,0,.02,0,.04,.03,.07,.05,.11,.08,.01,0,.01,.03,0,.03-.18,.09-.36,.17-.55,.24-.01,0-.02,.02-.01,.03,.1,.19,.22,.37,.36,.54,0,0,.01,.01,.02,0,.57-.16,1.15-.41,1.75-.81,0,0,0,0,0-.01,.15-1.39-.24-2.6-1.04-3.67h0Zm-3.59,2.94c-.34,0-.63-.29-.63-.65s.28-.65,.63-.65,.64,.29,.63,.65c0,.36-.28,.65-.63,.65Zm2.33,0c-.35,0-.63-.29-.63-.65s.28-.65,.63-.65,.64,.29,.63,.65c0,.36-.28,.65-.63,.65Z"/></g><circle class="e" cx="6.5" cy="6.5" r="5.75"/></g></g></svg>