<?xml version="1.0" encoding="UTF-8"?><svg xmlns="http://www.w3.org/2000/svg" xmlns:xlink="http://www.w3.org/1999/xlink" viewBox="0 0 13 13"><defs><style>.e{stroke:#388dfe;stroke-width:1.5px;}.e,.f{fill:none;}.g{fill:#388dfe;}.h{clip-path:url(#d);}</style><clipPath id="d"><rect class="f" x="4" y="4" width="5" height="5"/></clipPath></defs><g id="a"/><g id="b"><g id="c"><circle class="e" cx="6.5" cy="6.5" r="5.75"/><g class="h"><path class="g" d="M9,4.37v4.26c0,.1-.04,.19-.11,.26-.07,.07-.16,.11-.26,.11H4.37c-.1,0-.19-.04-.26-.11-.07-.07-.11-.16-.11-.26V4.37c0-.1,.04-.19,.11-.26,.07-.07,.16-.11,.26-.11h4.26c.1,0,.19,.04,.26,.11,.07,.07,.11,.16,.11,.26h0Zm-3.53,1.54h-.74v2.35h.74v-2.35Zm.07-.81c0-.06-.01-.11-.03-.16-.02-.05-.05-.1-.09-.14s-.09-.07-.14-.09c-.05-.02-.11-.03-.16-.03h-.01c-.11,0-.22,.04-.3,.12-.08,.08-.12,.19-.12,.3s.04,.22,.12,.3c.08,.08,.19,.12,.3,.12h0c.06,0,.11,0,.16-.03,.05-.02,.1-.05,.14-.09,.04-.04,.07-.08,.1-.14s.03-.11,.04-.16h0Zm2.73,1.72c0-.71-.45-.98-.9-.98-.15,0-.29,.02-.42,.09-.13,.07-.24,.17-.32,.29h-.02v-.32h-.69v2.35h.74v-1.25c-.01-.13,.03-.26,.11-.35,.08-.1,.2-.16,.33-.17h.03c.23,0,.41,.15,.41,.52v1.26h.74v-1.43Z"/></g></g></g></svg>