<?xml version="1.0" encoding="UTF-8"?><svg xmlns="http://www.w3.org/2000/svg" xmlns:xlink="http://www.w3.org/1999/xlink" viewBox="0 0 13 13"><defs><style>.e{stroke:#388dfe;stroke-width:1.5px;}.e,.f{fill:none;}.g{fill:#388dfe;}.h{clip-path:url(#d);}</style><clipPath id="d"><rect class="f" x="3.04" y="3.01" width="6.91" height="6.91"/></clipPath></defs><g id="a"/><g id="b"><g id="c"><g class="h"><g><path class="g" d="M9.6,8.02c-.53-.35-1.1-.6-1.71-.76,.02-.26,.03-.53,.03-.79,0-.35-.02-.7-.05-1.04,.57-.15,1.12-.38,1.62-.7,.29,.51,.46,1.11,.46,1.74,0,.56-.13,1.08-.36,1.55h0Z"/><path class="g" d="M6.5,7.56c.3,0,.59,.03,.88,.08-.16,1.38-.58,2.21-.88,2.21s-.72-.83-.88-2.21c.29-.05,.58-.08,.88-.08Z"/><path class="g" d="M5.58,7.16c-.01-.22-.02-.45-.02-.69,0-.34,.02-.65,.04-.94,.3,.05,.6,.08,.91,.08s.61-.03,.91-.08c.03,.3,.04,.61,.04,.94,0,.24,0,.47-.02,.69-.3-.05-.61-.08-.93-.08s-.62,.03-.93,.08h0Z"/><path class="g" d="M9.37,8.44c-.5,.76-1.28,1.3-2.19,1.49,.34-.46,.57-1.27,.67-2.18,.54,.15,1.05,.37,1.52,.69h0Z"/><path class="g" d="M6.5,5.12c-.29,0-.57-.03-.85-.07,.18-1.23,.56-1.96,.85-1.96s.67,.73,.85,1.96c-.28,.05-.56,.07-.85,.07Z"/><path class="g" d="M3.76,4.32c.5-.66,1.23-1.14,2.06-1.31-.31,.42-.52,1.12-.64,1.93-.5-.13-.98-.34-1.42-.62h0Z"/><path class="g" d="M7.18,3.01c.83,.17,1.56,.65,2.06,1.31-.44,.28-.92,.48-1.42,.62-.12-.81-.33-1.51-.64-1.93h0Z"/><path class="g" d="M5.08,6.47c0,.26,.01,.53,.03,.79-.6,.15-1.18,.41-1.71,.76-.23-.47-.36-.99-.36-1.55,0-.63,.17-1.23,.46-1.74,.5,.32,1.05,.56,1.63,.7-.03,.34-.05,.69-.05,1.04h0Z"/><path class="g" d="M5.83,9.93c-.91-.18-1.69-.73-2.19-1.49,.47-.32,.98-.55,1.52-.69,.11,.91,.33,1.72,.67,2.18h0Z"/></g></g><circle class="e" cx="6.5" cy="6.5" r="5.75"/></g></g></svg>