<?xml version="1.0" encoding="UTF-8"?><svg xmlns="http://www.w3.org/2000/svg" xmlns:xlink="http://www.w3.org/1999/xlink" viewBox="0 0 4380 5793.9"><defs><style>.f{fill:#4be0b4;}.g{fill:#388dfe;}.h{clip-path:url(#e);}.i{clip-path:url(#d);}.j{fill:none;}.k{fill:#23195f;}</style><clipPath id="d"><rect class="j" y="4333.9" width="4380" height="1460"/></clipPath><clipPath id="e"><rect class="j" y="0" width="3872.85" height="3866.68"/></clipPath></defs><g id="a"/><g id="b"><g id="c"><g class="i"><g><path class="k" d="M2833.35,5078.03v327.95h-226.38v-1129.36h226.07v619.59c0,6.83,.31,13.34,.63,20.17,.31,.93,.31,2.16,.61,3.1,.63-.94,.93-1.86,1.55-2.79,44.84-54.3,89.69-108.91,134.22-163.2,24.74-30.1,48.87-60.51,73.92-90.29,4.02-4.97,11.44-9.62,17.62-9.92,85.67-.63,171.35-.31,261.02-.31l-276.79,341.29,292.87,353.08c12.69-16.76,24.74-32.57,36.5-48.41,103.29-139.92,206.59-279.86,309.88-419.78,7.42-9.94,7.73-16.14,.31-26.68-118.45-166-236.28-331.99-354.12-498.28-3.7-5.28-7.11-10.55-12.36-18.62h20.72c79.48,0,159.27,.31,238.75-.31,12.99,0,20.72,3.73,28.14,14.58,72.68,104.26,145.67,208.19,219.28,312.13,3.7,5.27,7.72,10.55,12.68,17.06l106.7-151.4c42.37-60.19,84.43-120.39,127.42-180.27,4.02-5.58,12.06-11.16,17.93-11.16,87.53-.63,175.05,0,262.57,0,.61,1.24,.93,2.48,1.23,3.72-64.01,90.9-128.03,182.12-192.04,273.04-55.99,79.43-111.97,159.16-168.87,238.27-8.03,11.49-8.03,18.31,.31,29.48,125.56,169.71,250.81,339.43,375.45,509.76,3.09,4.34,6.49,9,10.82,15.2-5.57,.61-9.9,1.55-14.54,1.55-83.19,0-166.39-.31-249.89,.31-11.14,0-17.32-4.04-23.81-12.73-80.1-107.97-160.51-215.63-240.93-323.29-4.02-5.27-8.03-10.55-13.29-17.06-34.64,46.84-68.67,92.46-102.68,138.06-49.79,67.01-99.59,133.73-148.76,201.05-7.11,9.61-14.23,13.97-26.59,13.97-144.13-.63-287.93-.63-432.06,0-11.13,0-18.55-2.8-25.98-11.8-85.66-103.62-171.33-207.25-257.62-310.25-2.47-2.49-4.94-4.97-7.72-7.45l-2.48-2.18-.31,2.18h0Z"/><path class="k" d="M53.65,4335.57h18.25c132.99,0,266.28-.31,399.27,0,59.68,.31,117.21,11.48,170.09,40.33,81.34,44.36,134.22,112.32,154.01,202.61,18.87,86.25,14.54,170.95-38.66,246.34-34.95,49.33-84.12,79.74-138.86,102.39-4.96,2.16-10.21,4.03-15.15,6.19-1.55,.94-3.09,2.18-4.33,3.42,62.16,77.88,124.33,155.44,186.18,233.32,62.17,77.88,124.64,155.75,188.34,235.49-6.8,.31-11.75,1.24-17.01,1.24-85.05,0-170.09-.31-255.14,.31-10.21,.61-20.1-4.04-25.98-12.41-110.41-137.76-221.74-274.58-331.53-412.65-14.85-18.93-31.55-12.41-50.42-13.97v437.79H53.65v-1070.41h0Zm239.37,423.82c59.99,0,118.76,4.66,176.29-.94,95.25-9.3,115.66-97.42,79.48-155.75-17.95-28.85-48.24-42.19-80.42-43.44-58.14-2.48-116.28-.61-175.66-.61l.31,200.74h0Z"/><path class="k" d="M1292.89,4638.7c197.31-9.61,407.93,159.17,394.63,416.06-10.21,191.74-165.46,372.63-404.21,369.52-201.96-2.48-394.94-164.44-386.59-412.33,6.49-205.71,181.23-380.38,396.18-373.25h0Zm-3.72,571.2c80.1,4.34,144.74-50.27,162.99-123.8,8.97-35.68,9.29-73.22,.63-109.21-14.85-61.12-51.65-105.17-113.82-121-62.16-15.82-119.37-4.96-165.15,43.75-52.26,55.23-63.4,148.92-27.21,220.9,29.68,58.33,77.63,87.5,142.56,89.36h0Z"/><path class="k" d="M2518.83,4947.72c-65.56,0-129.27-1.24-192.98,.61-27.22,.94-43.6-5.27-58.45-31.34-61.85-108.27-231.33-95.87-280.51,13.97-23.5,52.75-29.68,106.42-12.99,163.2,17.63,59.57,51.96,102.39,112.27,117.28,69.28,16.74,128.97,2.16,173.5-56.16,2.16-2.17,3.72-4.66,5.27-7.45,11.44-34.13,36.79-37.23,68.34-35.99,55.05,2.48,110.73,.63,165.76,.63h21.04c-14.84,69.49-43.3,129.06-87.52,181.49-64.02,75.4-146.91,116.36-243.39,127.21-270.92,30.72-432.06-159.78-450.6-344.69-25.37-252.86,157.1-422.27,347.92-437.47,271.85-22.02,401.12,150.48,432.36,308.71h0Z"/></g></g><g class="h"><g><path class="g" d="M1937.65,1196.48c234.19-233.37,467.55-468.37,703.38-700.91,235.83-232.54,602.31-203.78,795.41,59.98,141.34,193.92,126.54,479.06-41.08,650.79-224.33,230.08-453.58,455.22-681.19,682.02-18.9,16.43-36.15,34.5-50.95,54.22,15.61,8.22,34.51,13.98,46.84,26.31,335.24,333.61,669.68,668.04,1004.11,1002.47,152.84,152.01,191.46,335.26,132.3,533.28-59.98,201.32-207.07,318-414.14,354.15-172.56,29.58-321.29-24.65-443.72-146.27-338.55-335.25-673.79-672.97-1010.69-1009.87-12.33-12.33-26.3-23.83-39.44-35.34v-6.57c123.25-122.43,244.87-247.33,370.59-368.12,190.63-183.23,194.75-529.99,8.22-717.34-125.73-125.72-253.09-252.26-379.63-378.81h0Z"/><path class="f" d="M1939.3,2661.56v6.57c-236.65,235.83-474.12,470.84-711.59,706.66-180.78,178.32-465.08,198.85-669.69,48.48-256.37-189.8-285.13-557.11-59.16-785.55,220.21-222.68,442.89-443.72,664.75-664.75,14.79-12.33,29.58-23.84,45.2-34.51-18.91-20.55-30.41-33.69-42.74-46.02-333.61-333.62-666.4-666.4-1000.83-1000.02C52.69,780.68-8.13,645.92,.91,488.98,22.28,180.02,281.11,2.53,492.29-.02c176.66-2.46,313.07,59.98,433.86,183.24,320.47,326.22,645.86,647.5,968.79,970.43,13.97,13.97,26.29,28.76,38.62,42.72-11.51,13.15-22.19,27.12-34.51,40.27-108.46,108.46-216.11,216.92-325.4,324.57-92.86,89.56-148.73,210.35-156.94,338.54-11.5,137.23,36.15,271.99,131.48,371.41,127.36,133.94,261.3,260.47,391.12,390.31v.09Z"/><path class="k" d="M1939.3,2661.58c-130.65-129.84-263.76-256.38-389.48-389.49-95.32-99.43-142.98-235.01-131.48-371.4,8.22-128.2,64.1-248.98,156.13-338.55,109.29-107.64,216.92-216.11,325.38-324.57,12.33-12.33,23.01-26.29,34.51-40.26h3.29l379.62,379.62c187.35,187.35,183.25,534.92-8.21,717.34-124.91,119.97-246.52,244.05-369.77,367.31h0Z"/></g></g></g></g></svg>