<?xml version="1.0" encoding="UTF-8"?><svg xmlns="http://www.w3.org/2000/svg" viewBox="0 0 13 13"><defs><style>.d{fill:none;stroke:#388dfe;stroke-width:1.5px;}.e{fill:#388dfe;}</style></defs><g id="a"/><g id="b"><g id="c"><circle class="d" cx="6.5" cy="6.5" r="5.75"/><path class="e" d="M10,4.3c-.26,.11-.53,.19-.82,.23,.3-.18,.52-.46,.63-.79-.28,.16-.58,.28-.91,.35-.26-.28-.64-.45-1.05-.45-.79,0-1.44,.64-1.44,1.44,0,.11,.01,.22,.04,.33-1.19-.06-2.25-.63-2.96-1.5-.12,.21-.19,.46-.19,.72,0,.5,.25,.94,.64,1.2-.24,0-.46-.07-.65-.18v.02c0,.7,.49,1.28,1.15,1.41-.12,.03-.25,.05-.38,.05-.09,0-.18,0-.27-.03,.18,.57,.71,.99,1.34,1-.49,.39-1.11,.61-1.78,.61-.12,0-.23,0-.34-.02,.64,.41,1.39,.65,2.2,.65,2.64,0,4.09-2.19,4.09-4.09,0-.06,0-.12,0-.19,.28-.2,.52-.46,.72-.74h0Z"/></g></g></svg>